<?xml version="1.0" encoding="utf-8"?>
<!-- Generator: Adobe Illustrator 27.5.0, SVG Export Plug-In . SVG Version: 6.00 Build 0)  -->
<svg version="1.1" id="Ñëîé_1" xmlns="http://www.w3.org/2000/svg" xmlns:xlink="http://www.w3.org/1999/xlink" x="0px" y="0px"
	 viewBox="0 0 2960.915 2499.391" style="enable-background:new 0 0 2960.915 2499.391;" xml:space="preserve">
<rect x="0" y="0" style="fill:#FFFFFF;" width="2960.915" height="2499.391"/>
<g>
	<g>
		<path style="fill:#313E67;" d="M967.813,242.136c-9.224,0-17.714-1.624-25.459-4.871c-7.745-3.247-14.385-7.714-19.906-13.412
			c-5.528-5.698-9.855-12.42-12.989-20.165c-3.133-7.745-4.7-16.122-4.7-25.118c0-9.002,1.567-17.373,4.7-25.125
			c3.134-7.745,7.461-14.467,12.989-20.159c5.522-5.698,12.161-10.171,19.906-13.418c7.745-3.247,16.236-4.871,25.459-4.871
			c9.23,0,17.714,1.624,25.466,4.871c7.745,3.247,14.379,7.72,19.906,13.418c5.521,5.692,9.855,12.414,12.989,20.159
			c3.127,7.751,4.7,16.122,4.7,25.125c0,8.996-1.573,17.373-4.7,25.118c-3.133,7.745-7.467,14.467-12.989,20.165
			c-5.528,5.698-12.161,10.165-19.906,13.412C985.527,240.512,977.043,242.136,967.813,242.136z M967.813,226.753
			c6.949,0,13.216-1.276,18.801-3.841c5.578-2.565,10.367-6.008,14.353-10.342c3.986-4.328,7.063-9.426,9.23-15.295
			c2.16-5.863,3.247-12.098,3.247-18.706c0-6.608-1.087-12.843-3.247-18.712c-2.167-5.869-5.244-10.967-9.23-15.295
			c-3.986-4.327-8.775-7.777-14.353-10.342c-5.585-2.559-11.852-3.841-18.801-3.841c-6.949,0-13.216,1.282-18.794,3.841
			c-5.585,2.565-10.367,6.014-14.353,10.342c-3.993,4.327-7.063,9.426-9.23,15.295c-2.167,5.869-3.247,12.104-3.247,18.712
			c0,6.608,1.08,12.843,3.247,18.706c2.167,5.869,5.237,10.967,9.23,15.295c3.986,4.334,8.769,7.777,14.353,10.342
			C954.597,225.477,960.864,226.753,967.813,226.753z"/>
		<path style="fill:#313E67;" d="M1050.515,158.063h15.383v12.471h0.341c1.933-4.327,5.294-7.827,10.083-10.506
			c4.782-2.679,10.31-4.018,16.577-4.018c3.866,0,7.6,0.6,11.188,1.794s6.722,3.051,9.401,5.553c2.672,2.508,4.814,5.724,6.406,9.66
			c1.598,3.929,2.394,8.573,2.394,13.924v52.119h-15.377v-47.849c0-3.759-0.518-6.975-1.542-9.653
			c-1.023-2.679-2.394-4.839-4.1-6.494c-1.712-1.649-3.677-2.843-5.894-3.588c-2.224-0.739-4.53-1.112-6.924-1.112
			c-3.19,0-6.153,0.512-8.882,1.542c-2.735,1.023-5.13,2.647-7.177,4.871c-2.053,2.217-3.651,5.041-4.789,8.459
			c-1.137,3.418-1.706,7.461-1.706,12.13v41.695h-15.383V158.063z"/>
		<path style="fill:#313E67;" d="M1146.724,109.873h15.377v129.186h-15.377V109.873z"/>
		<path style="fill:#313E67;" d="M1184.149,129.009c0-3.077,1.106-5.724,3.329-7.941c2.224-2.224,4.871-3.336,7.947-3.336
			c3.077,0,5.724,1.112,7.947,3.336c2.217,2.217,3.329,4.865,3.329,7.941s-1.112,5.724-3.329,7.947
			c-2.224,2.224-4.871,3.336-7.947,3.336c-3.077,0-5.724-1.112-7.947-3.336C1185.255,134.732,1184.149,132.085,1184.149,129.009z
			 M1187.737,158.063h15.377v80.996h-15.377V158.063z"/>
		<path style="fill:#313E67;" d="M1227.55,158.063h15.383v12.471h0.341c1.933-4.327,5.294-7.827,10.083-10.506
			c4.782-2.679,10.31-4.018,16.577-4.018c3.866,0,7.6,0.6,11.188,1.794c3.588,1.194,6.722,3.051,9.401,5.553
			c2.672,2.508,4.814,5.724,6.406,9.66c1.598,3.929,2.394,8.573,2.394,13.924v52.119h-15.377v-47.849
			c0-3.759-0.518-6.975-1.542-9.653c-1.023-2.679-2.394-4.839-4.1-6.494c-1.712-1.649-3.677-2.843-5.894-3.588
			c-2.224-0.739-4.53-1.112-6.924-1.112c-3.19,0-6.153,0.512-8.882,1.542c-2.736,1.023-5.13,2.647-7.177,4.871
			c-2.053,2.217-3.651,5.041-4.789,8.459c-1.137,3.418-1.706,7.461-1.706,12.13v41.695h-15.383V158.063z"/>
		<path style="fill:#313E67;" d="M1334.183,204.199c0,3.532,0.764,6.747,2.306,9.653c1.535,2.906,3.557,5.382,6.065,7.436
			c2.508,2.047,5.408,3.645,8.718,4.782c3.298,1.143,6.715,1.712,10.253,1.712c4.782,0,8.939-1.112,12.471-3.336
			c3.531-2.217,6.779-5.149,9.742-8.8l11.618,8.889c-8.541,11.049-20.506,16.577-35.883,16.577c-6.381,0-12.161-1.087-17.348-3.247
			c-5.18-2.167-9.565-5.155-13.153-8.971c-3.588-3.816-6.355-8.32-8.289-13.5c-1.939-5.187-2.906-10.797-2.906-16.836
			c0-6.033,1.049-11.643,3.159-16.83c2.11-5.18,5.016-9.678,8.718-13.501c3.702-3.816,8.118-6.804,13.241-8.971
			c5.13-2.161,10.708-3.247,16.748-3.247c7.177,0,13.241,1.257,18.201,3.759c4.953,2.508,9.028,5.787,12.218,9.83
			c3.184,4.043,5.496,8.598,6.918,13.665c1.428,5.073,2.135,10.228,2.135,15.465v5.471H1334.183z M1382.714,191.893
			c-0.12-3.418-0.657-6.545-1.624-9.394c-0.973-2.849-2.426-5.326-4.359-7.436c-1.939-2.104-4.359-3.759-7.265-4.953
			c-2.906-1.2-6.292-1.794-10.165-1.794c-3.759,0-7.208,0.708-10.342,2.135c-3.133,1.421-5.781,3.272-7.941,5.553
			c-2.167,2.281-3.847,4.814-5.041,7.606c-1.2,2.792-1.794,5.553-1.794,8.282H1382.714z"/>
		<path style="fill:#313E67;" d="M1494.299,133.456h-38.96v-15.383h94.326v15.383H1510.7v105.603h-16.4V133.456z"/>
		<path style="fill:#313E67;" d="M1547.442,158.063h15.383v12.471h0.341c1.023-2.161,2.394-4.125,4.1-5.894
			c1.712-1.763,3.614-3.272,5.724-4.53c2.11-1.251,4.416-2.249,6.924-2.988c2.502-0.739,5.01-1.112,7.518-1.112
			c2.502,0,4.782,0.341,6.836,1.023l-0.682,16.577c-1.257-0.341-2.508-0.625-3.759-0.853c-1.257-0.227-2.508-0.341-3.765-0.341
			c-7.518,0-13.273,2.11-17.259,6.324s-5.976,10.765-5.976,19.647v40.672h-15.383V158.063z"/>
		<path style="fill:#313E67;" d="M1611.009,167.975c4.334-3.986,9.344-6.981,15.042-8.977c5.692-1.99,11.39-2.988,17.089-2.988
			c5.92,0,11.018,0.745,15.295,2.224c4.271,1.478,7.77,3.475,10.506,5.976c2.735,2.508,4.757,5.389,6.065,8.63
			c1.308,3.247,1.965,6.64,1.965,10.171v41.354c0,2.849,0.057,5.465,0.171,7.859c0.114,2.394,0.284,4.675,0.518,6.836h-13.671
			c-0.341-4.1-0.512-8.2-0.512-12.306h-0.348c-3.418,5.243-7.461,8.945-12.13,11.112c-4.675,2.161-10.083,3.247-16.236,3.247
			c-3.759,0-7.347-0.518-10.765-1.541c-3.418-1.023-6.406-2.565-8.971-4.612c-2.565-2.053-4.587-4.587-6.065-7.606
			c-1.485-3.013-2.224-6.52-2.224-10.506c0-5.243,1.169-9.628,3.506-13.159c2.331-3.531,5.521-6.412,9.565-8.63
			c4.043-2.224,8.775-3.816,14.189-4.789c5.408-0.967,11.188-1.447,17.341-1.447h11.277v-3.418c0-2.053-0.398-4.106-1.194-6.153
			c-0.796-2.053-1.996-3.904-3.588-5.553c-1.598-1.649-3.588-2.963-5.983-3.929c-2.394-0.967-5.237-1.453-8.541-1.453
			c-2.963,0-5.553,0.284-7.777,0.853c-2.224,0.569-4.245,1.283-6.065,2.135c-1.826,0.853-3.481,1.851-4.959,2.988
			c-1.478,1.143-2.906,2.224-4.271,3.247L1611.009,167.975z M1654.416,200.099c-3.645,0-7.379,0.196-11.195,0.594
			c-3.816,0.404-7.29,1.175-10.424,2.312c-3.134,1.137-5.698,2.729-7.688,4.782c-1.996,2.053-2.988,4.675-2.988,7.859
			c0,4.675,1.56,8.036,4.694,10.083c3.133,2.053,7.379,3.077,12.736,3.077c4.214,0,7.802-0.707,10.765-2.135
			c2.957-1.421,5.351-3.272,7.177-5.553c1.819-2.281,3.134-4.814,3.93-7.606c0.796-2.792,1.194-5.553,1.194-8.289v-5.123H1654.416z"
			/>
		<path style="fill:#313E67;" d="M1696.964,129.009c0-3.077,1.106-5.724,3.329-7.941c2.224-2.224,4.871-3.336,7.947-3.336
			c3.077,0,5.724,1.112,7.948,3.336c2.217,2.217,3.329,4.865,3.329,7.941s-1.112,5.724-3.329,7.947
			c-2.224,2.224-4.871,3.336-7.948,3.336c-3.077,0-5.724-1.112-7.947-3.336C1698.07,134.732,1696.964,132.085,1696.964,129.009z
			 M1700.553,158.063h15.377v80.996h-15.377V158.063z"/>
		<path style="fill:#313E67;" d="M1740.365,158.063h15.383v12.471h0.341c1.933-4.327,5.294-7.827,10.083-10.506
			c4.782-2.679,10.31-4.018,16.577-4.018c3.866,0,7.6,0.6,11.188,1.794c3.588,1.194,6.722,3.051,9.4,5.553
			c2.672,2.508,4.814,5.724,6.406,9.66c1.598,3.929,2.394,8.573,2.394,13.924v52.119h-15.377v-47.849
			c0-3.759-0.518-6.975-1.542-9.653c-1.023-2.679-2.394-4.839-4.1-6.494c-1.712-1.649-3.677-2.843-5.894-3.588
			c-2.224-0.739-4.53-1.112-6.924-1.112c-3.19,0-6.153,0.512-8.882,1.542c-2.735,1.023-5.13,2.647-7.177,4.871
			c-2.053,2.217-3.651,5.041-4.789,8.459c-1.137,3.418-1.706,7.461-1.706,12.13v41.695h-15.383V158.063z"/>
		<path style="fill:#313E67;" d="M1832.986,129.009c0-3.077,1.106-5.724,3.329-7.941c2.224-2.224,4.871-3.336,7.947-3.336
			c3.077,0,5.724,1.112,7.947,3.336c2.218,2.217,3.329,4.865,3.329,7.941s-1.112,5.724-3.329,7.947
			c-2.224,2.224-4.871,3.336-7.947,3.336c-3.077,0-5.724-1.112-7.947-3.336C1834.092,134.732,1832.986,132.085,1832.986,129.009z
			 M1836.574,158.063h15.377v80.996h-15.377V158.063z"/>
		<path style="fill:#313E67;" d="M1876.387,158.063h15.383v12.471h0.341c1.933-4.327,5.294-7.827,10.083-10.506
			c4.782-2.679,10.31-4.018,16.577-4.018c3.866,0,7.6,0.6,11.188,1.794c3.588,1.194,6.722,3.051,9.4,5.553
			c2.672,2.508,4.814,5.724,6.406,9.66c1.598,3.929,2.394,8.573,2.394,13.924v52.119h-15.377v-47.849
			c0-3.759-0.518-6.975-1.542-9.653c-1.023-2.679-2.394-4.839-4.1-6.494c-1.712-1.649-3.677-2.843-5.894-3.588
			c-2.224-0.739-4.53-1.112-6.924-1.112c-3.19,0-6.153,0.512-8.882,1.542c-2.735,1.023-5.13,2.647-7.177,4.871
			c-2.053,2.217-3.652,5.041-4.789,8.459c-1.137,3.418-1.706,7.461-1.706,12.13v41.695h-15.383V158.063z"/>
		<path style="fill:#313E67;" d="M2052.569,238.377c0,6.153-1.055,11.763-3.165,16.83c-2.11,5.067-5.098,9.457-8.971,13.159
			c-3.873,3.702-8.541,6.577-14.012,8.63c-5.465,2.053-11.504,3.077-18.112,3.077c-7.752,0-14.84-1.087-21.277-3.247
			c-6.438-2.167-12.559-5.926-18.365-11.277l10.424-12.989c3.986,4.327,8.314,7.606,12.982,9.824
			c4.669,2.224,9.969,3.336,15.895,3.336c5.692,0,10.424-0.828,14.183-2.483c3.759-1.649,6.747-3.784,8.971-6.406
			c2.224-2.622,3.784-5.61,4.7-8.971c0.91-3.361,1.365-6.747,1.365-10.165v-11.965h-0.512c-2.963,4.902-6.981,8.516-12.047,10.854
			c-5.067,2.337-10.399,3.5-15.977,3.5c-5.926,0-11.422-1.049-16.489-3.159c-5.073-2.11-9.432-5.01-13.071-8.718
			c-3.651-3.696-6.494-8.086-8.547-13.153c-2.047-5.073-3.077-10.569-3.077-16.495c0-5.919,0.967-11.473,2.906-16.659
			c1.933-5.18,4.7-9.71,8.288-13.583c3.589-3.873,7.916-6.892,12.989-9.059c5.067-2.161,10.733-3.247,17-3.247
			c5.471,0,10.79,1.194,15.977,3.588c5.187,2.394,9.255,5.755,12.218,10.083h0.341v-11.618h15.383V238.377z M2010.532,170.363
			c-4.106,0-7.808,0.714-11.112,2.135c-3.304,1.428-6.09,3.361-8.371,5.812s-4.043,5.414-5.3,8.889
			c-1.251,3.475-1.876,7.259-1.876,11.359c0,8.206,2.394,14.783,7.177,19.742c4.782,4.953,11.277,7.429,19.483,7.429
			c8.2,0,14.695-2.476,19.477-7.429c4.789-4.959,7.177-11.536,7.177-19.742c0-4.1-0.625-7.884-1.876-11.359
			c-1.257-3.475-3.02-6.438-5.3-8.889c-2.281-2.451-5.067-4.384-8.371-5.812C2018.334,171.077,2014.632,170.363,2010.532,170.363z"
			/>
	</g>
	<g>
		<g>
			<g>
				<path style="fill:#FAE9DC;" d="M2587.483,1131.588c-180.556-660.064-1021.541-789.945-1718.759-448.07
					s-711.095,1642.69,461.258,1681.376S2706.481,1566.614,2587.483,1131.588z"/>
			</g>
			<g>
				<g>
					<path style="fill:#F0CDB6;" d="M941.609,2389.518c-130.519,0-251.637-41.839-364.675-167.295
						c-54.846-60.87-90.431-124.362-108.794-194.109c-16.394-62.272-18.583-128.192-6.69-201.527
						c22.064-136.055,88.101-272.801,158.014-417.577c24.315-50.354,49.461-102.424,72.279-153.911
						c41.682-94.048,72.094-197.93,101.506-298.391c77.221-263.765,150.159-512.901,411.064-570.319
						c309.195-68.053,421.729,66.678,564.2,237.248c75.021,89.819,160.052,191.622,287.336,281.218
						c254.18,178.922,410.974,334.811,493.441,490.593c100.786,190.385,91.679,383.887-27.844,591.562
						c-65.773,114.279-150.605,183.438-266.974,217.644c-103.562,30.443-219.266,29.427-341.751,28.361
						c-121.036-1.066-246.185-2.151-372.142,26.542c-72.03,16.409-141.49,35.869-208.663,54.69
						C1193.025,2353.157,1063.232,2389.518,941.609,2389.518z M1205.034,389.669l0.721,3.28
						c-257.02,56.564-329.416,303.846-406.061,565.648c-29.472,100.671-59.95,204.77-101.812,299.225
						c-22.863,51.587-48.031,103.706-72.371,154.109c-138.106,285.991-268.551,556.121-43.589,805.797
						c215.584,239.265,462.396,170.116,748.18,90.051c67.252-18.841,136.792-38.324,208.983-54.77
						c126.723-28.867,252.277-27.774,373.693-26.709c247.287,2.158,460.879,4.027,602.845-242.64
						c118.278-205.51,127.347-396.889,27.729-585.069c-81.952-154.81-238.09-309.952-491.371-488.241
						c-128.007-90.106-213.338-192.269-288.624-282.405c-141.008-168.819-252.385-302.17-557.602-234.995L1205.034,389.669z"/>
				</g>
			</g>
			<g>
				<path style="fill:#FFF6F0;" d="M1351.691,928.275c176.367-84.862,321.157-219.112,465.078-141.103
					s20.67,315.721,154.831,421.727c134.162,106.006,420.68,288.486,272.585,603.448
					c-148.095,314.963-583.339,130.782-704.017,60.875c-120.679-69.907-225.273,330.481-560.037,205.241
					s-92.356-419.329-92.666-535.832c-0.31-116.504-217.456-307.736-68.705-435.91S1100.595,1049.094,1351.691,928.275z"/>
			</g>
		</g>
		<g>
			<path style="fill:#FFAB3B;" d="M2240.992,1743.031c276.255-265.29,587.09-266.498,587.256-134.405
				s-549.708,352.063-585.197,333.233C2207.563,1923.029,2240.992,1743.031,2240.992,1743.031z"/>
		</g>
		<g>
			<path style="fill:#FFAB3B;" d="M2230.885,1968.09c176.597-92.978,311.135-94.217,306.523-15.586
				c-4.611,78.631-290.11,149.112-321.727,109.446C2184.066,2022.283,2230.885,1968.09,2230.885,1968.09z"/>
		</g>
		<g>
			<path style="fill:#FF7C3B;" d="M2251.119,1115.995c36.81-227.379,180.229-281.938,217.342-197.673
				c53.019,120.38-172.293,389.393-192.724,378.97C2255.306,1286.869,2251.119,1115.995,2251.119,1115.995z"/>
		</g>
		<g>
			<path style="fill:#FF7C3B;" d="M2230.793,1349.682c232.239-239.779,563.848-336.534,572.975-170.76
				c9.126,165.774-644.659,305.695-644.659,305.695L2230.793,1349.682z"/>
		</g>
		<g>
			<path style="fill:#FF7C3B;" d="M735.807,1295.769c-115.309-284.046-381.104-280.572-412.356-158.462
				s306.171,205.429,367.474,285.952C752.229,1503.783,735.807,1295.769,735.807,1295.769z"/>
		</g>
		<g>
			<path style="fill:#FFAB3B;" d="M767.224,1818.218c-71.713-274.504-439.496-347.671-460.835-229.355
				c-21.339,118.316,425.023,189.507,418.987,335.323C719.339,2070.003,767.224,1818.218,767.224,1818.218z"/>
		</g>
		<g>
			<path style="fill:#FFAB3B;" d="M702.777,1818.916c-316.856-134.57-671.859-126.482-643.591,50.092
				c31.993,199.841,519.007-86.311,605.958,89.983C752.095,2135.285,702.777,1818.916,702.777,1818.916z"/>
		</g>
		<g>
			<g>
				<g>
					<path style="fill:#FFD194;" d="M2248.348,1833.879c-1.966,0.387-4.078-0.245-5.51-1.849c-2.155-2.416-1.943-6.121,0.473-8.276
						c148.845-132.802,452.897-229.893,455.951-230.856c3.132-1.024,6.38,0.737,7.356,3.82c0.977,3.087-0.732,6.383-3.82,7.356
						c-3.032,0.958-304.721,97.308-451.683,228.43C2250.304,1833.226,2249.344,1833.683,2248.348,1833.879z"/>
				</g>
			</g>
			<g>
				<g>
					<path style="fill:#FFD194;" d="M2586.882,1717.965c-0.479,0.094-0.974,0.129-1.485,0.101l-143.169-8.556
						c-3.231-0.193-5.695-2.972-5.502-6.203c0.192-3.235,2.962-5.686,6.203-5.502l143.169,8.556
						c3.231,0.193,5.695,2.972,5.502,6.203C2591.435,1715.288,2589.439,1717.462,2586.882,1717.965z"/>
				</g>
			</g>
			<g>
				<g>
					<path style="fill:#FFD194;" d="M2207.662,1416.936c-3.53-3.028-3.937-8.35-0.909-11.88
						c34.58-40.31,309.394-207.351,474.347-236.463c4.587-0.806,8.967,2.251,9.761,6.834c0.81,4.582-2.244,8.951-6.826,9.76
						c-158.172,27.913-431.763,192.686-464.493,230.84C2216.513,1419.557,2211.192,1419.964,2207.662,1416.936z"/>
				</g>
			</g>
			<g>
				<g>
					<path style="fill:#FFD194;" d="M717.492,1374.681c-2.858,1.108-6.203,0.163-8.024-2.465
						c-1.257-1.815-127.705-181.777-310.486-223.257c-3.655-0.828-5.945-4.464-5.115-8.116c0.828-3.651,4.46-5.944,8.116-5.115
						c188.007,42.666,317.355,226.909,318.64,228.765c2.132,3.081,1.363,7.306-1.717,9.437
						C718.456,1374.241,717.98,1374.492,717.492,1374.681z"/>
				</g>
			</g>
			<g>
				<g>
					<path style="fill:#FFD194;" d="M701.873,1823.906c-2.226-0.401-3.985-2.266-4.155-4.625
						c-5.077-70.249-111.733-188.017-291.398-217.018c-0.029-0.005-0.06-0.011-0.091-0.016c-2.715-0.49-4.547-3.068-4.106-5.8
						c0.448-2.765,3.052-4.644,5.819-4.198c81.085,13.101,157.391,46.703,214.925,94.577
						c50.266,41.822,82.031,91.067,84.969,131.724c0.202,2.795-1.9,5.224-4.693,5.425
						C702.707,1824.006,702.283,1823.98,701.873,1823.906z"/>
				</g>
			</g>
			<g>
				<g>
					<path style="fill:#FFD194;" d="M120.306,1843.356c-1.87-0.337-3.474-1.717-4-3.674c-0.729-2.702,0.872-5.487,3.577-6.217
						c219.346-59.096,484.46-24.602,515.77,67.108c0.905,2.65-0.51,5.532-3.161,6.436c-2.652,0.911-5.532-0.508-6.439-3.161
						c-13.319-39.013-79.521-70.146-177.122-83.31c-102.551-13.818-221.522-5.536-326.41,22.724
						C121.775,1843.463,121.021,1843.485,120.306,1843.356z"/>
				</g>
			</g>
			<g>
				<g>
					<path style="fill:#FFD194;" d="M443.929,1651.099c-2.314-0.417-4.098-2.407-4.165-4.851c-0.077-2.799,2.13-5.132,4.929-5.208
						l102.844-2.846c2.812-0.087,5.134,2.127,5.211,4.929c0.077,2.799-2.13,5.132-4.929,5.208l-102.844,2.846
						C444.617,1651.19,444.267,1651.16,443.929,1651.099z"/>
				</g>
			</g>
			<g>
				<g>
					<path style="fill:#FFD194;" d="M228.85,1877.019c-1.016-0.183-1.985-0.677-2.755-1.48c-1.939-2.021-1.874-5.23,0.149-7.17
						l64.016-61.418c2.017-1.938,5.23-1.875,7.171,0.149c1.939,2.021,1.874,5.23-0.149,7.171l-64.016,61.418
						C232.048,1876.857,230.395,1877.297,228.85,1877.019z"/>
				</g>
			</g>
			<g>
				<g>
					<path style="fill:#FFD194;" d="M303.32,1880.182c-0.967-0.174-1.893-0.63-2.647-1.37c-1.998-1.961-2.03-5.171-0.069-7.173
						l64.671-65.944c1.963-1.998,5.174-2.03,7.173-0.069c1.998,1.961,2.03,5.171,0.069,7.173l-64.671,65.944
						C306.625,1879.99,304.918,1880.47,303.32,1880.182z"/>
				</g>
			</g>
			<g>
				<g>
					<path style="fill:#FFD194;" d="M384.652,1891.032c-0.769-0.139-1.518-0.458-2.181-0.967c-2.223-1.703-2.643-4.889-0.939-7.112
						l54.983-71.688c1.702-2.22,4.887-2.639,7.111-0.935c2.223,1.703,2.643,4.889,0.939,7.112l-54.983,71.688
						C388.386,1890.689,386.462,1891.359,384.652,1891.032z"/>
				</g>
			</g>
		</g>
		<g>
			<path style="fill:#404059;" d="M2239.395,2058.86H721.69c-40.583,0-73.483-32.899-73.483-73.483v-893.1
				c0-40.583,32.899-73.483,73.483-73.483h1517.706c40.583,0,73.483,32.899,73.483,73.483v893.1
				C2312.878,2025.96,2279.979,2058.86,2239.395,2058.86z"/>
		</g>
		<g>
			<path style="fill:#FFFFFF;" d="M2230.005,1953.588H731.081c-18.387,0-33.293-14.906-33.293-33.293v-826.783
				c0-18.387,14.906-33.293,33.293-33.293h1498.924c18.387,0,33.293,14.906,33.293,33.293v826.783
				C2263.298,1938.682,2248.392,1953.588,2230.005,1953.588z"/>
		</g>
		<g>
			<rect x="739.404" y="1103.222" style="fill:#FAE9DC;" width="1482.277" height="807.362"/>
		</g>
		<g>
			<rect x="739.404" y="1103.222" style="fill:#F0CDB6;" width="1482.277" height="113.821"/>
		</g>
		<g>
			<g>
				<g>
					
						<ellipse transform="matrix(0.2456 -0.9694 0.9694 0.2456 -499.8138 1678.0574)" style="fill:#FAE9DC;" cx="828.156" cy="1160.133" rx="13.261" ry="13.261"/>
				</g>
				<g>
					
						<ellipse transform="matrix(0.7071 -0.7071 0.7071 0.7071 -565.261 955.6042)" style="fill:#FFFFFF;" cx="870.886" cy="1160.133" rx="13.261" ry="13.261"/>
				</g>
				<g>
					
						<ellipse transform="matrix(0.7071 -0.7071 0.7071 0.7071 -552.7458 985.8187)" style="fill:#FFFFFF;" cx="913.615" cy="1160.133" rx="13.261" ry="13.261"/>
				</g>
			</g>
			<g>
				<g>
					<g>
						<path style="fill:#FAE9DC;" d="M2107.753,1181.613c-1.499-1.499-1.504-3.939,0-5.443l37.521-37.521
							c1.504-1.504,3.944-1.499,5.443,0c1.499,1.499,1.504,3.939,0,5.443l-37.521,37.521
							C2111.691,1183.117,2109.252,1183.112,2107.753,1181.613z"/>
					</g>
				</g>
				<g>
					<g>
						<path style="fill:#FAE9DC;" d="M2145.279,1181.613l-37.515-37.515c-1.499-1.499-1.504-3.939,0-5.443s3.944-1.499,5.443,0
							l37.515,37.515c1.499,1.499,1.504,3.939,0,5.443C2149.218,1183.117,2146.778,1183.112,2145.279,1181.613z"/>
					</g>
				</g>
			</g>
		</g>
		<g>
			<g>
				<rect x="833.429" y="1717.823" style="fill:#F0CDB6;" width="351.305" height="20.774"/>
			</g>
			<g>
				<rect x="833.429" y="1760.949" style="fill:#F0CDB6;" width="351.305" height="20.774"/>
			</g>
			<g>
				<rect x="833.429" y="1804.075" style="fill:#F0CDB6;" width="186.714" height="20.774"/>
			</g>
		</g>
		<g>
			<rect x="833.429" y="1324.553" style="fill:#F0CDB6;" width="351.305" height="329.047"/>
		</g>
		<g>
			<g>
				<g>
					<path style="fill:#FAE9DC;" d="M983.655,1545.128c-2.11,0-4.221-0.557-6.142-1.666c-3.836-2.217-6.13-6.189-6.13-10.618
						v-87.537c0-4.434,2.294-8.406,6.136-10.623c3.841-2.217,8.424-2.223,12.266,0.006l75.805,43.769
						c3.841,2.211,6.13,6.183,6.13,10.617c0,4.434-2.288,8.406-6.13,10.618l-75.805,43.768
						C987.864,1544.571,985.76,1545.128,983.655,1545.128z M983.649,1439.101c-1.067,0-2.128,0.279-3.094,0.842
						c-1.945,1.12-3.1,3.124-3.1,5.365v87.537c0,2.235,1.156,4.239,3.094,5.359c1.945,1.126,4.256,1.126,6.201,0.006l75.805-43.769
						c1.939-1.12,3.095-3.124,3.095-5.365c0-2.241-1.156-4.245-3.095-5.365l-75.805-43.769
						C985.778,1439.385,984.711,1439.101,983.649,1439.101z"/>
				</g>
			</g>
			<g>
				<g>
					<path style="fill:#FAE9DC;" d="M1009.082,1598.649c-60.421,0-109.572-49.151-109.572-109.573
						c0-60.421,49.151-109.572,109.572-109.572c60.421,0,109.572,49.151,109.572,109.572
						C1118.654,1549.497,1069.503,1598.649,1009.082,1598.649z M1009.082,1385.574c-57.071,0-103.502,46.43-103.502,103.502
						c0,57.072,46.43,103.502,103.502,103.502c57.072,0,103.502-46.43,103.502-103.502
						C1112.584,1432.005,1066.153,1385.574,1009.082,1385.574z"/>
				</g>
			</g>
		</g>
		<g>
			<g>
				<rect x="1769.131" y="1717.823" style="fill:#F0CDB6;" width="351.305" height="20.774"/>
			</g>
			<g>
				<rect x="1769.131" y="1760.949" style="fill:#F0CDB6;" width="351.305" height="20.774"/>
			</g>
			<g>
				<rect x="1769.131" y="1804.075" style="fill:#F0CDB6;" width="186.714" height="20.774"/>
			</g>
		</g>
		<g>
			<rect x="1769.131" y="1324.553" style="fill:#F0CDB6;" width="351.305" height="329.047"/>
		</g>
		<g>
			<g>
				<g>
					<path style="fill:#FAE9DC;" d="M1919.357,1545.128c-2.11,0-4.221-0.557-6.142-1.666c-3.836-2.217-6.13-6.189-6.13-10.618
						v-87.537c0-4.434,2.294-8.406,6.136-10.623c3.842-2.217,8.424-2.223,12.266,0.006l75.805,43.769
						c3.842,2.211,6.13,6.183,6.13,10.617c0,4.434-2.288,8.406-6.13,10.618l-75.805,43.768
						C1923.566,1544.571,1921.461,1545.128,1919.357,1545.128z M1919.351,1439.101c-1.067,0-2.128,0.279-3.095,0.842
						c-1.944,1.12-3.1,3.124-3.1,5.365v87.537c0,2.235,1.156,4.239,3.094,5.359c1.945,1.126,4.257,1.126,6.201,0.006l75.805-43.769
						c1.938-1.12,3.095-3.124,3.095-5.365c0-2.241-1.156-4.245-3.095-5.365l-75.805-43.769
						C1921.479,1439.385,1920.412,1439.101,1919.351,1439.101z"/>
				</g>
			</g>
			<g>
				<g>
					<path style="fill:#FAE9DC;" d="M1944.783,1598.649c-60.421,0-109.572-49.151-109.572-109.573
						c0-60.421,49.151-109.572,109.572-109.572s109.572,49.151,109.572,109.572
						C2054.355,1549.497,2005.204,1598.649,1944.783,1598.649z M1944.783,1385.574c-57.072,0-103.502,46.43-103.502,103.502
						c0,57.072,46.43,103.502,103.502,103.502c57.072,0,103.502-46.43,103.502-103.502
						C2048.285,1432.005,2001.855,1385.574,1944.783,1385.574z"/>
				</g>
			</g>
		</g>
		<g>
			<g>
				<path style="fill:#FFF6F0;" d="M1421.756,1384.156c60.928-29.317,110.948-75.695,160.667-48.746
					c49.719,26.949,7.141,109.07,53.489,145.691c46.348,36.621,145.329,99.661,94.168,208.469
					c-51.161,108.808-201.522,45.18-243.212,21.03c-41.69-24.15-77.823,114.169-193.472,70.903
					c-115.648-43.266-31.906-144.862-32.013-185.11c-0.107-40.248-75.123-106.311-23.735-150.59
					C1289.036,1401.523,1335.011,1425.894,1421.756,1384.156z"/>
			</g>
			<g>
				<g>
					<path style="fill:#28495C;" d="M1751.287,1757.822c-2.915,4.334-220.829,3.25-225.682,0
						c-4.654-3.098-7.111-249.93-2.457-316.815c0-0.183,0.015-0.366,0.031-0.534c0.671-9.293,1.48-14.97,2.426-15.901
						c7.783-7.584,217.899-8.668,221.791,0c0.473,1.038,0.931,6.73,1.358,15.901c0.015,0.183,0.015,0.351,0.031,0.534
						C1751.928,1507.891,1753.851,1754.052,1751.287,1757.822z"/>
				</g>
				<g>
					<path style="fill:#367394;" d="M1458.751,1702.55c-3.174,4.38-239.493,3.281-244.773,0
						c-5.066-3.159-7.722-254.096-2.625-320.966c0.015-0.214,0.031-0.427,0.046-0.641c0.733-9.004,1.587-14.512,2.579-15.443
						c8.439-7.661,236.318-8.759,240.53,0c0.519,1.038,1.007,6.562,1.465,15.443c0.015,0.214,0.015,0.427,0.031,0.641
						C1459.422,1448.438,1461.528,1698.719,1458.751,1702.55z"/>
				</g>
				<g>
					<g>
						<path style="fill:#28495C;" d="M1246.907,1539.402c-3.571-0.865-5.203-79.052,0-80.891s145.699-2.101,148.301,0
							s4.553,79.84,2.602,80.891S1250.16,1540.19,1246.907,1539.402z"/>
					</g>
					<g>
						<g>
							<path style="fill:#28495C;" d="M1244.379,1639.727c-0.85-0.329-1.239-30.093,0-30.792s34.694-0.8,35.313,0
								c0.62,0.8,1.084,30.392,0.62,30.792C1279.847,1640.127,1245.154,1640.027,1244.379,1639.727z"/>
						</g>
						<g>
							<path style="fill:#28495C;" d="M1296.294,1639.727c-0.85-0.329-1.239-30.093,0-30.792c1.239-0.7,34.694-0.8,35.313,0
								s1.084,30.392,0.62,30.792C1331.762,1640.127,1297.068,1640.027,1296.294,1639.727z"/>
						</g>
						<g>
							<path style="fill:#28495C;" d="M1351.665,1639.727c-0.85-0.329-1.239-30.093,0-30.792c1.239-0.7,34.694-0.8,35.313,0
								c0.62,0.8,1.084,30.392,0.62,30.792C1387.133,1640.127,1352.439,1640.027,1351.665,1639.727z"/>
						</g>
					</g>
					<g>
						<g>
							<path style="fill:#28495C;" d="M1244.379,1685.328c-0.85-0.329-1.239-30.092,0-30.792s34.694-0.8,35.313,0
								c0.62,0.8,1.084,30.392,0.62,30.792C1279.847,1685.727,1245.154,1685.627,1244.379,1685.328z"/>
						</g>
						<g>
							<path style="fill:#28495C;" d="M1296.294,1685.328c-0.85-0.329-1.239-30.092,0-30.792c1.239-0.7,34.694-0.8,35.313,0
								s1.084,30.392,0.62,30.792C1331.762,1685.727,1297.068,1685.627,1296.294,1685.328z"/>
						</g>
						<g>
							<path style="fill:#28495C;" d="M1351.665,1685.328c-0.85-0.329-1.239-30.092,0-30.792c1.239-0.7,34.694-0.8,35.313,0
								c0.62,0.8,1.084,30.392,0.62,30.792C1387.133,1685.727,1352.439,1685.627,1351.665,1685.328z"/>
						</g>
					</g>
					<g>
						<g>
							<rect x="1243.589" y="1394.441" style="fill:#79C5EE;" width="181.464" height="21.257"/>
						</g>
					</g>
					<g>
						<g>
							<rect x="1243.589" y="1551.543" style="fill:#79C5EE;" width="23.247" height="6.958"/>
						</g>
					</g>
					<g>
						<g>
							<g>
								<rect x="1271.335" y="1433.345" style="fill:#79C5EE;" width="23.247" height="6.959"/>
							</g>
						</g>
						<g>
							
								<ellipse transform="matrix(0.1602 -0.9871 0.9871 0.1602 -364.4226 2445.3223)" style="fill:#FAD6B9;" cx="1254.854" cy="1436.825" rx="11.265" ry="11.265"/>
						</g>
					</g>
					<g>
						<g>
							
								<ellipse transform="matrix(0.2298 -0.9732 0.9732 0.2298 -572.0429 2444.5547)" style="fill:#FAD6B9;" cx="1258.391" cy="1583.681" rx="14.802" ry="14.802"/>
						</g>
						<g>
							
								<ellipse transform="matrix(0.9239 -0.3827 0.3827 0.9239 -506.7284 619.8629)" style="fill:#FAD6B9;" cx="1304.768" cy="1583.681" rx="14.802" ry="14.802"/>
						</g>
						<g>
							
								<ellipse transform="matrix(0.9239 -0.3827 0.3827 0.9239 -503.1982 637.6104)" style="fill:#FAD6B9;" cx="1351.145" cy="1583.681" rx="14.802" ry="14.802"/>
						</g>
					</g>
				</g>
				<g>
					<g>
						<path style="fill:#FAD6B9;" d="M1610.369,1541.919c-1.481-0.213-2.159-19.456,0-19.908c2.158-0.453,60.437-0.517,61.516,0
							s1.889,19.65,1.079,19.908S1611.718,1542.113,1610.369,1541.919z"/>
					</g>
					<g>
						<g>
							<path style="fill:#FFF4EB;" d="M1570.855,1593.393c-3.384-0.193-4.93-17.603,0-18.012c4.93-0.409,138.038-0.468,140.503,0
								c2.465,0.468,4.314,17.778,2.465,18.012C1711.975,1593.627,1573.937,1593.568,1570.855,1593.393z"/>
						</g>
						<g>
							<path style="fill:#FFF4EB;" d="M1570.855,1634.697c-3.384-0.193-4.93-17.603,0-18.012c4.93-0.409,138.038-0.468,140.503,0
								c2.465,0.468,4.314,17.778,2.465,18.012C1711.975,1634.931,1573.937,1634.872,1570.855,1634.697z"/>
						</g>
						<g>
							<path style="fill:#FFF4EB;" d="M1570.855,1676.001c-3.384-0.193-4.93-17.603,0-18.012c4.93-0.409,138.038-0.468,140.503,0
								c2.465,0.468,4.314,17.778,2.465,18.012C1711.975,1676.235,1573.937,1676.177,1570.855,1676.001z"/>
						</g>
					</g>
					<g>
						<g>
							<g>
								<rect x="1575.34" y="1604.633" style="fill:#367394;" width="42.585" height="4.654"/>
							</g>
						</g>
						<g>
							<g>
								<rect x="1575.34" y="1563.446" style="fill:#367394;" width="42.585" height="4.654"/>
							</g>
						</g>
						<g>
							<g>
								<rect x="1575.34" y="1647.346" style="fill:#367394;" width="42.585" height="4.654"/>
							</g>
						</g>
					</g>
				</g>
				<g>
					<path style="fill:#79C5EE;" d="M1604.408,1805.052c-3.159,4.425-239.035,3.327-244.3,0c-2.792-1.755-4.853-79.582-5.28-160.415
						c-0.275-51.442,0.107-104.12,1.373-139.172c0.351-9.827,0.778-18.266,1.282-24.904c0.717-9.492,1.587-15.306,2.625-16.267
						c8.424-7.752,235.876-8.851,240.088,0c0.519,1.083,1.007,6.898,1.48,16.267c0.336,6.638,0.656,15.077,0.977,24.904
						c1.083,35.068,1.984,87.73,2.518,139.172C1605.995,1725.287,1605.95,1802.916,1604.408,1805.052z"/>
				</g>
				<g>
					<path style="fill:#FFF4EB;" d="M1601.676,1480.559h-244.198c0.727-9.494,1.597-15.306,2.624-16.26
						c8.426-7.755,235.883-8.863,240.088,0C1600.712,1465.372,1601.202,1471.185,1601.676,1480.559z"/>
				</g>
				<g>
					<path style="fill:#367394;" d="M1386.127,1775.111c-4.53-0.877-6.6-80.108,0-81.971c6.6-1.863,184.797-2.129,188.097,0
						c3.3,2.129,5.775,80.906,3.3,81.971S1390.252,1775.91,1386.127,1775.111z"/>
				</g>
				<g>
					<path style="fill:#FFF4EB;" d="M1605.171,1644.637h-250.342c-0.275-51.442,0.107-104.12,1.373-139.172h246.451
						C1603.737,1540.533,1604.637,1593.195,1605.171,1644.637z"/>
				</g>
				<g>
					<circle style="fill:#367394;" cx="1479.958" cy="1575.051" r="53.405"/>
				</g>
				<g>
					<g>
						
							<ellipse transform="matrix(0.1602 -0.9871 0.9871 0.1602 -240.0754 2867.9275)" style="fill:#367394;" cx="1565.384" cy="1575.051" rx="18.496" ry="18.496"/>
					</g>
					<g>
						
							<ellipse transform="matrix(0.1602 -0.9871 0.9871 0.1602 -383.5603 2699.2813)" style="fill:#367394;" cx="1394.532" cy="1575.051" rx="18.496" ry="18.496"/>
					</g>
				</g>
				<g>
					<g>
						<rect x="1444.582" y="1489.931" style="fill:#367394;" width="71.283" height="6.162"/>
					</g>
				</g>
				<g>
					<g>
						<g>
							<rect x="1384.379" y="1658.619" style="fill:#28495C;" width="44.374" height="14.952"/>
						</g>
					</g>
					<g>
						<g>
							<rect x="1452.818" y="1658.619" style="fill:#367394;" width="54.812" height="14.952"/>
						</g>
					</g>
					<g>
						<g>
							<rect x="1531.695" y="1658.619" style="fill:#28495C;" width="44.374" height="14.952"/>
						</g>
					</g>
				</g>
				<g>
					<path style="fill:#367394;" d="M1748.785,1441.006h-225.636c0-0.183,0.015-0.366,0.031-0.534
						c0.671-9.293,1.48-14.97,2.426-15.901c7.783-7.584,217.899-8.668,221.791,0c0.473,1.038,0.931,6.73,1.358,15.901
						C1748.769,1440.655,1748.769,1440.823,1748.785,1441.006z"/>
				</g>
				<g>
					<path style="fill:#FAD6B9;" d="M1455.973,1380.942h-244.574c0.733-9.004,1.587-14.512,2.579-15.443
						c8.439-7.661,236.318-8.759,240.53,0C1455.027,1366.537,1455.515,1372.061,1455.973,1380.942z"/>
				</g>
			</g>
		</g>
		<g>
			<g>
				<path style="fill:#40312A;" d="M2154.544,1565.245c14.742,0.834,24.477-6.397,24.477-6.397s23.642,35.324,47.006,11.404
					s16.411-59.523,8.623-61.47s-15.854,6.119-15.854,6.119s1.669-9.735-3.894-11.404c-5.563-1.669-16.615,8.901-16.615,8.901
					s3.542-21.139-5.637-28.649c-9.179-7.51-21.695,2.757-21.695,2.757s-4.186-20.837-28.239-20.002
					c-24.053,0.834-25.443,32.543-22.94,41.165C2122.279,1516.292,2154.544,1565.245,2154.544,1565.245z"/>
			</g>
			<g>
				<path style="fill:#FD9B73;" d="M2115.765,1518.246c-6.698,6.112-11.426,15.986-11.148,17.237
					c0.278,1.252,8.205,3.755,10.569,3.199S2115.765,1518.246,2115.765,1518.246z"/>
			</g>
			<g>
				<path style="fill:#FEC6AB;" d="M2159.272,1548.834c0,0,2.503,43.669-1.669,49.788c-4.172,6.12-31.708,4.172-28.371,1.113
					c2.109-1.924,5.447-14.765,7.603-23.943c1.275-5.331,2.133-9.434,2.133-9.434s-15.576,5.563-23.92-5.007
					c-8.345-10.569-5.007-30.04,4.728-53.682c0,0,1.391,5.146,8.623,4.033c7.231-1.113,14.324-9.874,14.324-9.874
					s3.338,16.133,15.993,24.477c6.143,4.033,16.133,5.285,16.411,13.907S2159.272,1548.834,2159.272,1548.834z"/>
			</g>
			<g>
				<path style="fill:#FD9B73;" d="M2151.739,1555.556c-0.301,1.113-5.03,18.033-14.904,20.235c1.275-5.331,2.133-9.434,2.133-9.434
					C2145.041,1564.086,2151.229,1556.205,2151.739,1555.556z"/>
			</g>
			<g>
				<g>
					<path style="fill:#FE653B;" d="M2132.59,2008.813c-1.075,3.06-3.104,5.632-6.057,7.444
						c-10.029,6.101-59.951,6.616-69.879-3.467c-1.1-1.137-1.708-2.403-1.707-3.798c0.002-6.288,9.904-12.527,21.454-17.614
						c0.763-0.333,1.526-0.666,2.297-0.979c2.724-1.152,5.509-2.211,8.241-3.225c0.861-0.325,1.709-0.622,2.538-0.911
						c9.85-3.452,18.677-5.756,21.506-6.242c7.412-1.305,9.638-1.877,10.684-0.93
						C2131.787,1988.245,2135.681,2000.35,2132.59,2008.813z"/>
				</g>
				<g>
					<path style="fill:#F04936;" d="M2132.59,2008.813c-1.075,3.06-3.104,5.632-6.057,7.444
						c-10.029,6.101-59.951,6.616-69.879-3.467c0.012-0.029,0.012-0.029,0.012-0.029
						C2101.67,2006.82,2122.9,2006.716,2132.59,2008.813z"/>
				</g>
				<g>
					<g>
						<g>
							<path style="fill:#FFFFFF;" d="M2100.948,1993.971c0.225,0.263,0.215,0.646-0.04,0.891c-0.053,0.045-0.134,0.078-0.195,0.103
								c-0.243,0.099-0.524,0.047-0.696-0.143c-5.136-5.669-9.537-7.429-13.077-7.648c0.861-0.325,1.709-0.622,2.538-0.911
								C2092.776,1987.052,2096.626,1989.201,2100.948,1993.971z"/>
						</g>
					</g>
					<g>
						<g>
							<path style="fill:#FFFFFF;" d="M2090.536,1998.194c0.245,0.255,0.215,0.645-0.041,0.891c-0.053,0.045-0.114,0.07-0.174,0.094
								c-0.244,0.099-0.524,0.047-0.696-0.143c-5.218-5.754-9.672-7.469-13.223-7.659c0.763-0.333,1.526-0.666,2.297-0.979
								C2082.083,1991.106,2086.071,1993.246,2090.536,1998.194z"/>
						</g>
					</g>
				</g>
			</g>
			<g>
				<g>
					<path style="fill:#FE653B;" d="M2127.154,1932.761c0.814,3.139,0.565,6.406-0.874,9.557
						c-4.919,10.658-46.063,38.938-59.928,36.108c-1.547-0.331-2.758-1.042-3.535-2.2c-3.506-5.22,1.231-15.921,7.979-26.587
						c0.447-0.702,0.895-1.404,1.36-2.094c1.618-2.476,3.338-4.908,5.04-7.274c0.533-0.75,1.072-1.47,1.598-2.172
						c6.249-8.361,12.289-15.198,14.365-17.178c5.423-5.218,6.952-6.935,8.348-6.733
						C2115.012,1916.14,2124.997,1924.014,2127.154,1932.761z"/>
				</g>
				<g>
					<path style="fill:#F04936;" d="M2127.154,1932.761c0.814,3.139,0.565,6.406-0.874,9.557
						c-4.919,10.658-46.063,38.938-59.928,36.108c-0.006-0.03-0.006-0.03-0.006-0.03
						C2100.381,1948.358,2117.942,1936.427,2127.154,1932.761z"/>
				</g>
				<g>
					<g>
						<g>
							<path style="fill:#FFFFFF;" d="M2092.613,1938.097c0.334,0.093,0.538,0.416,0.464,0.762c-0.019,0.067-0.068,0.14-0.104,0.194
								c-0.147,0.218-0.409,0.332-0.657,0.27c-7.425-1.84-12.06-0.845-15.119,0.948c0.533-0.75,1.072-1.47,1.598-2.172
								C2081.971,1936.914,2086.365,1936.549,2092.613,1938.097z"/>
						</g>
					</g>
					<g>
						<g>
							<path style="fill:#FFFFFF;" d="M2086.329,1947.411c0.346,0.075,0.539,0.416,0.464,0.762
								c-0.019,0.067-0.055,0.121-0.092,0.176c-0.147,0.218-0.409,0.332-0.657,0.27c-7.541-1.864-12.194-0.803-15.247,1.021
								c0.447-0.702,0.895-1.404,1.36-2.094C2075.358,1946.244,2079.862,1945.795,2086.329,1947.411z"/>
						</g>
					</g>
				</g>
			</g>
			<g>
				<path style="fill:#5091B9;" d="M2070.683,1730.602c-39.357,62.722-56.141,101.35-57.494,121.688
					c-1.353,20.338,69.524,76.806,77.515,77.324c7.992,0.518,10.651-4.45,10.404-17.245c-0.247-12.795-16.657-38.245-22.916-46.172
					s-22.947-14.185-22.947-14.185s58.459-47.145,60.103-57.993C2116.994,1783.171,2070.683,1730.602,2070.683,1730.602z"/>
			</g>
			<g>
				<path style="fill:#5091B9;" d="M2145.921,1901.243c2.225,18.914-17.801,78.993-22.298,83.443
					c-1.669,1.669-4.659,2.642-7.904,2.99c-0.742,0.07-1.483,0.116-2.248,0.116c-4.729,0.116-9.434-0.997-10.941-3.106
					c-2.781-3.894-5.563-181.906-31.847-254.085l40.262,1.229l2.387,0.069l25.774,0.788c0,0,13.49,10.106,20.026,41.722
					c6.536,31.616-25.45,72.874-25.45,82.331C2133.683,1866.197,2143.696,1882.329,2145.921,1901.243z"/>
			</g>
			<g>
				<g>
					<path style="fill:#FFFFFF;" d="M2115.719,1987.677c-0.742,0.07-1.483,0.116-2.248,0.116
						c7.046-52.639,10.152-192.036-2.526-255.962c-0.556-2.851-1.136-5.516-1.762-8.043l2.248-0.556
						c0.672,2.712,1.298,5.609,1.901,8.669C2125.802,1795.966,2122.719,1934.064,2115.719,1987.677z"/>
				</g>
			</g>
			<g>
				<path style="fill:#FFAB3B;" d="M2159.131,1593.113c9.181,30.681-12.932,133.316-20.024,139.575
					c-7.093,6.258-64.668,0.417-68.423-2.086c-3.755-2.503,3.338-37.132,3.755-45.059
					C2074.855,1677.615,2159.131,1593.113,2159.131,1593.113z"/>
			</g>
			<g>
				<path style="fill:#FF643B;" d="M1799.19,1348.455c-85.434-8.456-161.546,53.947-170.002,139.381
					c-8.456,85.433,53.946,161.546,139.38,170.002c85.434,8.456,161.546-53.947,170.002-139.38
					C1947.026,1433.023,1884.624,1356.911,1799.19,1348.455z M1771.625,1626.949c-68.398-6.77-118.32-67.659-111.55-136.057
					c6.77-68.398,67.659-118.32,136.057-111.55c68.398,6.77,118.32,67.66,111.55,136.057S1840.023,1633.719,1771.625,1626.949z"/>
			</g>
			<g style="opacity:0.5;">
				
					<ellipse transform="matrix(0.7071 -0.7071 0.7071 0.7071 -540.3986 1701.6542)" style="fill:#FFFFFF;" cx="1783.879" cy="1503.146" rx="124.408" ry="124.408"/>
			</g>
			<g>
				<path style="fill:#FF643B;" d="M1899.428,1598.798c0,0,209.446,183.838,210.661,189.935
					c2.865,14.373-24.042,38.663-37.577,33.07c-7.968-3.292-198.587-196.914-198.587-196.914L1899.428,1598.798z"/>
			</g>
			<g>
				
					<ellipse transform="matrix(0.7733 -0.634 0.634 0.7733 -525.3141 1433.8541)" style="fill:#808080;" cx="1742.539" cy="1451.561" rx="81.45" ry="35.917"/>
			</g>
			<g>
				<path style="fill:#FFAB3B;" d="M2159.133,1593.106c0,0-3.338,26.516-16.41,49.88c-13.096,23.364-47.006,50.9-76.211,62.583
					c-29.205,11.682-79.41-0.139-79.41-0.139s-28.093,5.841-37.271,0c-9.179-5.841-12.795-20.583-7.788-25.033
					c4.891-4.357,19.053,1.924,19.725,2.202c-0.232-0.695-4.288-12.238,0.023-13.328c4.45-1.113,27.814,17.801,27.814,17.801
					s41.165-2.225,73.986-31.152C2096.412,1626.993,2119.776,1586.94,2159.133,1593.106z"/>
			</g>
			<g>
				<path style="fill:#FEC6AB;" d="M1987.101,1705.43c0,0-28.093,5.841-37.271,0c-9.179-5.841-12.795-20.583-7.788-25.033
					c4.891-4.357,19.053,1.924,19.725,2.202c-0.232-0.695-4.288-12.238,0.023-13.328c4.45-1.113,27.814,17.801,27.814,17.801
					S1985.363,1700.145,1987.101,1705.43z"/>
			</g>
		</g>
		<g>
			<g>
				<path style="fill:#1A7EB4;" d="M944.507,2007.836c1.024,3.122,3.025,5.771,5.976,7.669c10.028,6.393,60.585,7.979,70.856-2.023
					c1.138-1.129,1.781-2.398,1.809-3.811c0.132-6.369-9.765-12.899-21.356-18.299c-0.766-0.354-1.531-0.708-2.306-1.041
					c-2.734-1.225-5.533-2.357-8.279-3.442c-0.865-0.348-1.718-0.667-2.551-0.977c-9.904-3.707-18.796-6.229-21.651-6.781
					c-7.48-1.48-9.723-2.107-10.802-1.17C945.759,1987.019,941.557,1999.198,944.507,2007.836z"/>
			</g>
			<g>
				<path style="fill:#12405B;" d="M944.507,2007.836c1.024,3.122,3.025,5.771,5.976,7.669c10.028,6.393,60.585,7.979,70.856-2.023
					c-0.012-0.029-0.012-0.029-0.012-0.029C975.869,2006.476,954.367,2005.919,944.507,2007.836z"/>
			</g>
			<g>
				<g>
					<g>
						<path style="fill:#FFFFFF;" d="M976.874,1993.476c-0.234,0.262-0.231,0.649,0.022,0.903c0.052,0.047,0.134,0.082,0.195,0.108
							c0.245,0.105,0.53,0.059,0.708-0.13c5.323-5.633,9.819-7.322,13.409-7.468c-0.865-0.348-1.718-0.667-2.551-0.977
							C985.299,1986.642,981.354,1988.737,976.874,1993.476z"/>
					</g>
				</g>
				<g>
					<g>
						<path style="fill:#FFFFFF;" d="M987.331,1997.977c-0.254,0.253-0.231,0.649,0.022,0.903c0.052,0.047,0.113,0.073,0.175,0.099
							c0.245,0.105,0.53,0.059,0.708-0.13c5.408-5.717,9.956-7.36,13.557-7.477c-0.766-0.354-1.531-0.708-2.306-1.041
							C996.044,1990.976,991.959,1993.059,987.331,1997.977z"/>
					</g>
				</g>
			</g>
			<g>
				<path style="fill:#1A7EB4;" d="M770.96,1928.857c-2.359,2.287-3.865,5.245-4.281,8.73c-1.36,11.815,19.339,57.967,32.827,62.826
					c1.513,0.529,2.936,0.552,4.219-0.041c5.785-2.669,7.325-14.425,7.107-27.211c-0.017-0.843-0.034-1.687-0.073-2.529
					c-0.095-2.995-0.302-6.006-0.528-8.95c-0.066-0.93-0.152-1.837-0.238-2.721c-1.001-10.527-2.625-19.626-3.378-22.435
					c-1.943-7.373-2.361-9.664-3.675-10.225C790.226,1920.873,777.436,1922.424,770.96,1928.857z"/>
			</g>
			<g>
				<path style="fill:#12405B;" d="M770.96,1928.857c-2.359,2.287-3.865,5.245-4.281,8.73c-1.36,11.815,19.339,57.967,32.827,62.826
					c0.021-0.023,0.021-0.023,0.021-0.023C785.908,1956.462,776.999,1936.884,770.96,1928.857z"/>
			</g>
			<g>
				<g>
					<g>
						<path style="fill:#FFFFFF;" d="M798.036,1951.677c-0.338-0.095-0.685,0.076-0.803,0.415c-0.019,0.068-0.015,0.156-0.012,0.223
							c0.012,0.266,0.179,0.503,0.427,0.58c7.395,2.321,10.881,5.624,12.583,8.788c-0.066-0.93-0.152-1.837-0.238-2.721
							C807.869,1956.261,804.259,1953.63,798.036,1951.677z"/>
					</g>
				</g>
				<g>
					<g>
						<path style="fill:#FFFFFF;" d="M798.566,1963.048c-0.339-0.117-0.685,0.076-0.802,0.415c-0.019,0.068-0.016,0.134-0.013,0.201
							c0.012,0.266,0.179,0.502,0.427,0.58c7.507,2.361,10.974,5.731,12.656,8.918c-0.017-0.843-0.034-1.687-0.073-2.529
							C808.674,1967.819,805.013,1965.058,798.566,1963.048z"/>
					</g>
				</g>
			</g>
			<g>
				<g>
					<path style="fill:#40312A;" d="M950.645,1560.506c-21.036-6.463-17.926-19.044-17.926-19.044s-15.906-12.107-13.949-25.848
						c1.957-13.74,12.936-17.538,12.936-17.538s2.562-25.128,20.013-28.699c16.216-3.318,24.194,9.698,24.194,9.698
						s12.361-17.714,33.718-5.743c22.523,12.624,10.834,35.408,10.834,35.408s6.342,13.648-6.136,20.005
						C1001.852,1535.101,950.645,1560.506,950.645,1560.506z"/>
				</g>
				<g>
					<path style="fill:#FEC6AB;" d="M942.09,1526.931c-1.454,10.875,12.421,18.535,12.421,18.535s-21.832,56.319-19.709,59.236
						c2.123,2.917,39.792,12.98,33.582,6.166c-3.228-3.55-2.887-12.713-1.821-20.688c0.966-7.377,2.603-13.793,2.603-13.793
						s0.133,0.25,0.421,0.675c1.773,2.557,8.831,11.519,19.741,9.042c12.486-2.831,24.883-31.857,25.003-57.358
						c0,0-4.548,3.886-12.64-0.487c-8.092-4.373-9.581-14.266-9.581-14.266s-10.285,13.823-22.937,14.465
						C956.52,1529.099,943.545,1516.055,942.09,1526.931z"/>
				</g>
				<g>
					<path style="fill:#FD9B73;" d="M1005.023,1538.906c3.153,9.838,2.026,23.11,0.395,24.118c-1.631,1.009-7.282-1.703-7.999-3.055
						C996.703,1558.617,1005.023,1538.906,1005.023,1538.906z"/>
				</g>
				<g>
					<path style="fill:#FD9B73;" d="M959.377,1558.702c-0.167,1.5-2.471,24.15,7.187,31.478c0.966-7.377,2.603-13.793,2.603-13.793
						C962.923,1568.724,959.728,1559.607,959.377,1558.702z"/>
				</g>
			</g>
			<g>
				<path style="fill:#367394;" d="M969.166,1751.785c31.666,86.305,15.974,225.117,12.956,229.945
					c-3.018,4.828-30.177,8.449-37.419,2.414c-7.242-6.035-21.727-64.578-18.71-100.186c3.018-35.608-17.111-127.949-0.408-141.226
					C942.289,1729.454,969.166,1751.785,969.166,1751.785z"/>
			</g>
			<g>
				<path style="fill:#5091B9;" d="M941.685,1884.863c-12.674,19.162-112.609,75.29-121.813,73.882
					c-6.589-0.955-17.402-13.529-21.224-26.153c-0.302-0.855-0.503-1.76-0.704-2.615c-0.956-4.073-1.006-8.047,0.101-11.568
					c4.828-15.088,77.856-66.388,77.856-66.388s-28.668-88.97,6.488-110.899c35.156-21.877,71.368-7.091,71.368-7.091
					C954.058,1787.393,954.359,1865.701,941.685,1884.863z"/>
			</g>
			<g>
				<g>
					<path style="fill:#FFFFFF;" d="M904.82,1853.077c-4.225,9.506-43.203,36.212-77.554,59.7
						c-9.707,6.639-19.967,13.68-28.617,19.816c-0.302-0.855-0.503-1.76-0.704-2.615c7.544-5.331,16.899-11.718,27.913-19.262
						c32.389-22.18,72.726-49.792,76.648-58.643c2.565-5.783-0.1-19.916-3.169-36.212c-5.18-27.763-11.718-62.315,3.42-78.208
						l1.81,1.71c-14.233,14.988-7.846,48.836-2.716,75.994C905.121,1832.809,907.686,1846.589,904.82,1853.077z"/>
				</g>
			</g>
			<g>
				<path style="fill:#FEC6AB;" d="M821.395,1754.389c-0.767,11.882-3.649,30.188-7.813,29.867
					c-4.163-0.321-3.162-12.525-3.162-12.525s-13.171,25.05-22.778,20.554c-9.608-4.496-8.006-37.896,14.091-48.172
					C823.831,1733.835,821.395,1754.389,821.395,1754.389z"/>
			</g>
			<g>
				<path style="fill:#79C5EE;" d="M937.646,1592.109c12.565,12.413,28.2,9.484,28.2,9.484s37.47,13.793,57.653,34.916
					c20.184,21.124,58.629,79.431,44.295,86.909c-28.939,15.097-75.869-30.78-75.869-30.78s-16.401,56.732-22.758,59.146
					c-6.357,2.414-82.122-4.828-86.789-12.071c-4.666-7.242,0-76.648,0-76.648s-48.121,94.151-58.381,95.358
					c-10.26,1.207-30.177-8.449-30.78-14.485c-0.604-6.035,26.674-91.737,70.613-127.345
					C897.982,1588.917,937.646,1592.109,937.646,1592.109z"/>
			</g>
			<g>
				<path style="fill:#F04936;" d="M904.266,1668.799c24.141-2.414,115.878,20.562,115.878,20.562l-47.741,17.433L904.266,1668.799z
					"/>
			</g>
			<g>
				<path style="fill:#FF643B;" d="M971.051,1709.923c0,0-68.897-31.419-71.311-34.662c-1.277-1.715,0.604-6.463,4.526-6.463
					c3.923,0,71.82,36.514,71.82,36.514L971.051,1709.923z"/>
			</g>
			<g>
				<path style="fill:#FF643B;" d="M1098.906,1717.685c-1.66,1.66-16.396,1.76-35.357,1.056c-4.325-0.201-8.902-0.402-13.579-0.653
					c-2.364-0.151-4.778-0.302-7.192-0.453c-18.81-1.106-38.525-2.666-52.507-4.224c-11.92-1.308-19.665-2.565-19.212-3.471
					c0,0,29.623-69.205,35.961-71.468c3.118-1.106,35.961-0.553,68.551,0.955c13.781,0.654,27.511,1.509,38.928,2.464
					c1.358,0.101,2.716,0.252,4.023,0.352c1.911,0.201,3.722,0.352,5.432,0.553c11.014,1.157,18.307,2.464,18.86,3.822
					C1145.076,1652.504,1103.885,1712.706,1098.906,1717.685z"/>
			</g>
			<g>
				<g>
					<path style="fill:#1A1A1A;" d="M1114.497,1641.891l-71.72,75.744c-18.81-1.106-38.525-2.666-52.507-4.224l85.299-73.983
						C1089.349,1640.081,1103.08,1640.936,1114.497,1641.891z"/>
				</g>
				<g>
					<path style="fill:#1A1A1A;" d="M1123.952,1642.797l-60.404,75.944c-4.325-0.201-8.902-0.402-13.579-0.653l68.551-75.844
						C1120.431,1642.445,1122.242,1642.596,1123.952,1642.797z"/>
				</g>
			</g>
			<g>
				<path style="fill:#FEC6AB;" d="M1059.208,1723.545c-5.054-8.615,15.448-22.276,23.947-19.631s16.965,12.855,13.485,18.793
					c-4.998,8.529-18.71,2.712-18.71,2.712S1065.202,1733.763,1059.208,1723.545z"/>
			</g>
		</g>
		<g>
			<g>
				<path style="fill:#FEC6AB;" d="M1303.868,894.559c-19.025,3.903-49.512-21.707-30.244-26.585
					c8.808-2.25,13.144-8.049,15.258-13.686c2.466-6.694,1.816-13.144,1.816-13.144s0.515-0.325,1.382-0.84
					c4.932-2.9,21.382-11.464,21.789,3.035c0.054,1.599,0.162,3.144,0.325,4.553c1.707,13.767,9.133,19.648,17.968,22.52
					C1341.917,873.583,1322.893,890.656,1303.868,894.559z"/>
			</g>
			<g>
				<path style="fill:#FD9B73;" d="M1314.194,847.892c-4.092,6.45-17.534,8.022-25.312,6.396c2.466-6.694,1.816-13.144,1.816-13.144
					s0.515-0.325,1.382-0.84C1301.186,840.521,1314.194,847.892,1314.194,847.892z"/>
			</g>
			<g>
				<g>
					<g>
						<path style="fill:#40312A;" d="M1327.538,829.962c47.5,15.574,40.492-15.185,40.492-15.185s8.955-6.619,7.787-17.91
							c-1.168-11.291-11.68-15.185-11.68-15.185s14.795-17.131-2.726-30.369c-17.521-13.238-24.918,5.84-24.918,5.84
							s10.512-38.935-12.848-41.271c-23.361-2.336-25.697,26.865-25.697,26.865s-13.238-30.369-28.422-15.963
							c-15.185,14.406-4.283,29.201-4.283,29.201s-18.299-1.168-26.476,20.635c-8.176,21.803,16.353,34.652,16.353,34.652
							s-12.07,9.193-3.115,23.09c8.955,13.898,43.607-2.844,43.607-2.844L1327.538,829.962z"/>
					</g>
					<g>
						<path style="fill:#FEC6AB;" d="M1262.517,791.417c-2.336,16.353,13.238,20.635,13.238,20.635s1.947,37.832,29.201,37.832
							c27.254,0,27.644-32.381,27.644-32.381s22.193-6.619,18.689-18.299c-3.504-11.68-13.627,1.168-26.086-4.283
							c-12.459-5.451-10.123-18.299-10.123-18.299s-9.734,18.689-24.14,20.635C1276.533,799.204,1262.517,791.417,1262.517,791.417z
							"/>
					</g>
				</g>
				<g>
					<path style="fill:#FD9B73;" d="M1305.164,802.46c-9.185,9.459-9.185,20.7-8.499,21.385c0.685,0.685,7.266-0.548,8.499-1.234
						C1306.398,821.926,1305.164,802.46,1305.164,802.46z"/>
				</g>
			</g>
			<g>
				<path style="fill:#1A7EB4;" d="M1292.797,1138.474c1.324,3.393,1.479,7.069,0.291,10.774
					c-4.075,12.538-46.216,49.524-62.054,48.205c-1.769-0.164-3.214-0.797-4.234-1.986c-4.602-5.357-0.735-17.919,5.378-30.708
					c0.406-0.842,0.812-1.685,1.24-2.516c1.476-2.975,3.073-5.916,4.658-8.78c0.495-0.907,1-1.782,1.494-2.634
					c5.862-10.151,11.693-18.576,13.746-21.06c5.358-6.538,6.835-8.655,8.418-8.614
					C1277.055,1121.545,1289.234,1129.004,1292.797,1138.474z"/>
			</g>
			<g>
				<path style="fill:#12405B;" d="M1292.797,1138.474c1.324,3.393,1.479,7.069,0.291,10.774
					c-4.075,12.538-46.216,49.524-62.054,48.205c-0.011-0.033-0.011-0.033-0.011-0.033
					C1265.003,1159.413,1283.009,1143.783,1292.797,1138.474z"/>
			</g>
			<g>
				<g>
					<g>
						<path style="fill:#FFFFFF;" d="M1254.982,1148.998c0.384,0.06,0.655,0.393,0.618,0.788c-0.012,0.077-0.057,0.165-0.091,0.23
							c-0.135,0.262-0.412,0.424-0.698,0.388c-8.524-1.068-13.562,0.655-16.736,3.059c0.495-0.907,1-1.782,1.494-2.634
							C1242.957,1149.088,1247.809,1148.1,1254.982,1148.998z"/>
					</g>
				</g>
				<g>
					<g>
						<path style="fill:#FFFFFF;" d="M1249.207,1160.218c0.396,0.038,0.656,0.393,0.618,0.788c-0.012,0.077-0.046,0.142-0.079,0.208
							c-0.135,0.262-0.412,0.424-0.698,0.388c-8.657-1.081-13.705,0.719-16.869,3.157c0.406-0.842,0.812-1.685,1.24-2.516
							C1236.817,1160.369,1241.781,1159.272,1249.207,1160.218z"/>
					</g>
				</g>
			</g>
			<g>
				<path style="fill:#1A7EB4;" d="M1308.406,1130.215c-1.324,3.393-1.479,7.069-0.291,10.774
					c4.075,12.538,46.216,49.524,62.054,48.204c1.769-0.164,3.214-0.797,4.234-1.986c4.602-5.357,0.735-17.919-5.378-30.708
					c-0.406-0.842-0.812-1.685-1.24-2.516c-1.476-2.975-3.073-5.916-4.658-8.779c-0.495-0.907-1-1.782-1.494-2.634
					c-5.862-10.151-11.693-18.576-13.746-21.06c-5.358-6.538-6.835-8.655-8.418-8.614
					C1324.149,1113.286,1311.97,1120.745,1308.406,1130.215z"/>
			</g>
			<g>
				<path style="fill:#12405B;" d="M1308.406,1130.215c-1.324,3.393-1.479,7.069-0.291,10.774
					c4.075,12.538,46.216,49.524,62.054,48.204c0.011-0.033,0.011-0.033,0.011-0.033
					C1336.2,1151.154,1318.194,1135.524,1308.406,1130.215z"/>
			</g>
			<g>
				<g>
					<g>
						<path style="fill:#FFFFFF;" d="M1346.221,1140.739c-0.385,0.059-0.656,0.393-0.618,0.788c0.012,0.077,0.057,0.165,0.091,0.23
							c0.135,0.262,0.412,0.424,0.698,0.388c8.525-1.068,13.562,0.655,16.736,3.06c-0.495-0.907-1-1.782-1.494-2.634
							C1358.247,1140.828,1353.395,1139.84,1346.221,1140.739z"/>
					</g>
				</g>
				<g>
					<g>
						<path style="fill:#FFFFFF;" d="M1351.997,1151.958c-0.396,0.038-0.656,0.393-0.618,0.789c0.012,0.077,0.046,0.142,0.079,0.208
							c0.135,0.262,0.412,0.424,0.698,0.388c8.657-1.081,13.705,0.719,16.869,3.157c-0.406-0.842-0.812-1.685-1.24-2.516
							C1364.386,1152.11,1359.423,1151.013,1351.997,1151.958z"/>
					</g>
				</g>
			</g>
			<g>
				<path style="fill:#5091B9;" d="M1248.105,1137.022c-68.715-50.976-85.563-76.651-59.712-121.837
					c25.851-45.187,84.154-64.795,148.75-46.114c64.597,18.681,83.568,75.703,72.337,100.387
					c-11.232,24.684-45.639,63.78-57.322,61.454c-11.684-2.326-25.651-7.837-25.745-17.187s18.761-65.741,14.571-80.581
					c-4.19-14.84-77.516-21.649-88.689,2.095s20.252,79.262,20.252,89.213C1272.547,1134.404,1258.901,1145.031,1248.105,1137.022z"
					/>
			</g>
			<g>
				<path style="fill:#FF643B;" d="M1273.049,870.389c28.648,21.054,43.444-3.571,43.444-3.571s28.578,5.693,41.148,11.424
					c38.585,17.592,70.923,56.645,68.745,85.255c-4.317,56.683-187.983,32.461-196.928,9.755
					C1220.756,951.166,1273.049,870.389,1273.049,870.389z"/>
			</g>
			<g>
				<path style="fill:#FF643B;" d="M1280.452,865.053c-68.794,7.935-110.585,56.821-111.173,85.717
					c-0.589,28.896,48.57,58.98,129.34,42.979C1379.389,977.747,1280.452,865.053,1280.452,865.053z"/>
			</g>
			<g>
				<path style="fill:#28495C;" d="M1219.897,915.362c4.199-0.619,146.958,0.589,150.282,2.354
					c3.324,1.766-7.659,77.509-21.161,83.537c-13.501,6.028-102.785,2.252-111.921-3.05
					C1231.237,994.802,1216.943,915.798,1219.897,915.362z"/>
			</g>
			<g>
				<ellipse style="fill:#FAD6B9;" cx="1295.14" cy="959.768" rx="13.463" ry="11.599"/>
			</g>
		</g>
		<g>
			<path style="fill:#65658C;" d="M2527.675,2129.793H433.41c-60.875,0-110.224-49.349-110.224-110.224v0h2314.713v0
				C2637.899,2080.444,2588.55,2129.793,2527.675,2129.793z"/>
		</g>
		<g>
			<g>
				
					<rect x="1699.299" y="2000.867" transform="matrix(0.9886 -0.1505 0.1505 0.9886 -294.6037 299.0807)" style="fill:#FFB03A;" width="259.076" height="190.461"/>
			</g>
			<g>
				<path style="fill:#FF863B;" d="M1686.443,2021.445c28.796,28.589,130.012,104.187,146.6,102.284
					c16.588-1.904,109.526-141.271,109.526-141.271L1686.443,2021.445z"/>
			</g>
			<g>
				<g>
					<polygon style="fill:#FFB03A;" points="1686.443,2021.445 1831.61,2114.32 1822.004,2000.811 					"/>
				</g>
				<g>
					<polygon style="fill:#FFB03A;" points="1942.569,1982.458 1831.61,2114.32 1807.008,2003.093 					"/>
				</g>
			</g>
			<g>
				<path style="fill:#FF863B;" d="M1715.104,2209.738c25.27-57.086,84.041-109.12,84.041-109.12L1715.104,2209.738z"/>
			</g>
			<g>
				<path style="fill:#FF863B;" d="M1971.23,2170.75c-41.111-46.981-112.702-79.172-112.702-79.172L1971.23,2170.75z"/>
			</g>
		</g>
		<g>
			<g>
				<path style="fill:#FF643B;" d="M1443.134,2062.039c0,0-50.324,47.278-73.382,110.011c-7.43,20.099-10.249,40.188-10.767,58.043
					c-1.052,36.171,7.556,63.266,7.556,63.266s59.241,22.911,121.312,4.402c64.012-19.14,114.337-66.417,114.337-66.417
					s-38.508-54.24-36.687-124.901C1494.866,2103.854,1443.134,2062.039,1443.134,2062.039z"/>
			</g>
			<g>
				<path style="fill:#FFAB3B;" d="M1445.78,2078.065c0,0-44.482,41.789-64.864,97.24c-19.783,53.703-2.838,107.228-2.838,107.228
					s52.364,20.251,107.229,3.891c56.581-16.918,101.063-58.707,101.063-58.707s-34.037-47.944-32.428-110.401
					C1491.507,2115.026,1445.78,2078.065,1445.78,2078.065z"/>
			</g>
			<g>
				<g>
					
						<ellipse transform="matrix(0.7287 -0.6849 0.6849 0.7287 -1086.1885 1611.6313)" style="fill:#FF643B;" cx="1490.831" cy="2176.617" rx="21.87" ry="23.613"/>
				</g>
				<g>
					<polygon style="fill:#FF643B;" points="1425.276,2238.233 1442.886,2256.969 1471.371,2212.552 1499.856,2168.135 
						1453.761,2193.816 1407.666,2219.497 					"/>
				</g>
			</g>
			<g>
				<path style="fill:#1A1A1A;" d="M1443.134,2062.039c0,0-50.324,47.278-73.382,110.011c-7.43,20.099-10.249,40.188-10.767,58.043
					c4.019,0.549,8.123,0.792,12.312,0.807c21.751,0.064,44.835-6.864,67.553-18.069c7.571-3.684,15.043-7.87,22.449-12.443
					c5.327-3.216,10.546-6.627,15.654-10.234c8.327-5.735,16.358-11.865,24.13-18.271c20.034-16.363,38.161-34.36,52.794-51.313
					c4.147-4.79,8.06-9.51,11.625-14.127C1494.866,2103.854,1443.134,2062.039,1443.134,2062.039z"/>
			</g>
		</g>
		<g>
			<path style="fill:#FF643B;" d="M1034.119,2089.706c-2.618-1.103-14.315-43.925-12.345-48.951s55.679-17.334,55.679-17.334
				s-31.902-34.22-19.945-65.009c10.937-28.164,48.108-19.579,54.922,1.156c6.814,20.735-1.772,60.641-1.772,60.641
				s67.536-16.887,74.981-10.846c7.445,6.041,14.285,66.304,14.285,66.304s74.701-43.428,80.272,19.603
				c4.292,48.559-65.328,40.582-65.328,40.582s13.092,40.295,10.422,46.042c-2.669,5.747-150.71,31.701-161.551,26.247
				s-22.91-65.804-18.789-68.694s49.022,9.092,51.183-33.058C1098.294,2064.239,1038.674,2091.625,1034.119,2089.706z"/>
		</g>
		<g>
			<g>
				<path style="fill:#5091B9;" d="M2887.769,1909.166c5.403-0.179,10.601,0.434,15.546,1.797
					c-2.951-22.092-11.023-42.489-22.977-60.03c-9.282,10.062-22.475,16.509-37.206,16.996
					c-29.369,0.973-53.986-22.066-54.959-51.435c-0.289-8.728,1.517-17.016,5.063-24.391c-10.99-2.41-22.489-3.462-34.265-3.072
					c-8.589,0.285-16.967,1.348-25.092,3.096c4.642,7.567,7.431,16.396,7.746,25.909c0.973,29.369-22.066,53.986-51.435,54.959
					c-17.871,0.592-33.956-7.705-44.055-20.916c-10.13,15.175-17.325,32.426-20.872,50.943c4.03-1.15,8.261-1.799,12.602-1.943
					c29.369-0.973,53.985,22.02,54.959,51.435c0.924,27.892-19.836,51.509-47.101,54.63c15.679,23.936,38.445,42.736,65.198,53.5
					c-1.832-5.071-2.938-10.535-3.127-16.261c-0.974-29.415,22.066-53.987,51.435-54.959c29.37-0.973,53.985,22.02,54.959,51.435
					c0.26,7.85-1.201,15.388-4.073,22.186c26.917-9.397,50.015-26.666,66.609-49.036c-22.558-5.54-39.586-25.547-40.392-49.883
					C2835.36,1934.71,2858.4,1910.139,2887.769,1909.166z M2764.878,1967.324c-20.642,0.684-37.959-15.523-38.643-36.165
					c-0.684-20.641,15.524-37.959,36.165-38.643s37.959,15.524,38.643,36.165
					C2801.727,1949.323,2785.519,1966.641,2764.878,1967.324z"/>
			</g>
			<g>
				<path style="fill:#5091B9;" d="M2775.706,1895.08c-4.017-1.253-8.292-1.898-12.725-1.751
					c-20.642,0.684-36.849,18.002-36.166,38.643c0.177,5.357,1.454,10.4,3.637,14.904c-14.58-4.741-25.381-18.206-25.918-34.414
					c-0.684-20.641,15.524-37.959,36.165-38.643C2755.985,1873.312,2769.497,1882.064,2775.706,1895.08z"/>
			</g>
			<g>
				<path style="fill:#5091B9;" d="M2855.026,1995.312l21.699,18.697c0,0-13.807,15.805-29.155,4.664
					C2832.224,2007.532,2855.026,1995.312,2855.026,1995.312z"/>
			</g>
			<g>
				<path style="fill:#5091B9;" d="M2788.417,2044.348l21.699,18.697c0,0,25.421-22.481,11.001-39.129
					C2806.697,2007.268,2788.417,2044.348,2788.417,2044.348z"/>
			</g>
			<g>
				<path style="fill:#5091B9;" d="M2771.537,1773.406l21.699,18.697c0,0-24.234,15.041-33.893,8.149
					C2749.685,1793.36,2771.537,1773.406,2771.537,1773.406z"/>
			</g>
			<g>
				<path style="fill:#5091B9;" d="M2858.639,1832.236l21.699,18.697c0,0,9.709,23.764-9.924,18.589
					C2850.781,1864.348,2858.639,1832.236,2858.639,1832.236z"/>
			</g>
			<g>
				<path style="fill:#5091B9;" d="M2603.564,1884.325l21.7,18.697c0,0,16.907-5.969,11.456-19.796
					C2631.269,1869.4,2603.564,1884.325,2603.564,1884.325z"/>
			</g>
			<g>
				<path style="fill:#79C5EE;" d="M2866.069,1890.469c5.403-0.179,10.601,0.434,15.546,1.797
					c-2.951-22.092-11.023-42.489-22.976-60.03c-9.282,10.062-22.475,16.509-37.206,16.996c-9.744,0.323-18.928-2.008-26.929-6.32
					c-16.143-8.665-27.38-25.49-28.03-45.115c-0.289-8.728,1.517-17.016,5.063-24.391c-10.99-2.41-22.489-3.462-34.265-3.072
					c-8.589,0.285-16.968,1.348-25.092,3.096c4.642,7.567,7.431,16.396,7.746,25.909c0.973,29.369-22.066,53.987-51.435,54.959
					c-17.871,0.592-33.956-7.705-44.055-20.916c-10.13,15.175-17.325,32.426-20.872,50.943c4.03-1.15,8.261-1.8,12.602-1.943
					c26.691-0.884,49.462,18.055,54.145,43.604c0.454,2.527,0.726,5.153,0.814,7.832c0.924,27.892-19.836,51.509-47.101,54.631
					c15.679,23.936,38.445,42.736,65.198,53.5c-1.832-5.071-2.938-10.536-3.127-16.262c-0.975-29.415,22.066-53.986,51.435-54.959
					c29.369-0.973,53.985,22.02,54.959,51.435c0.26,7.85-1.201,15.388-4.073,22.186c26.917-9.398,50.014-26.666,66.609-49.036
					c-22.558-5.54-39.586-25.547-40.392-49.883C2813.66,1916.012,2836.7,1891.442,2866.069,1890.469z M2743.178,1948.627
					c-20.318,0.673-37.387-14.988-38.563-35.151c-0.057-0.322-0.069-0.692-0.08-1.015c-0.684-20.641,15.524-37.959,36.165-38.643
					c7.619-0.252,14.76,1.776,20.8,5.505c10.335,6.361,17.412,17.638,17.843,30.66
					C2780.027,1930.626,2763.82,1947.943,2743.178,1948.627z"/>
			</g>
			<g>
				<path style="fill:#333333;" d="M2794.504,1842.912c-7.861,12.511-18.917,24.85-33.003,36.412
					c-6.041-3.729-13.181-5.758-20.8-5.505c-20.642,0.684-36.849,18.002-36.165,38.643c0.011,0.323,0.023,0.693,0.08,1.015
					c-10.71,4.654-22.127,8.869-34.304,12.508c-4.683-25.548-27.454-44.488-54.145-43.604c-4.341,0.144-8.572,0.793-12.602,1.943
					c3.547-18.516,10.742-35.767,20.872-50.943c10.1,13.211,26.184,21.508,44.055,20.916c29.369-0.973,52.408-25.59,51.435-54.959
					c-0.315-9.513-3.104-18.342-7.746-25.909c8.124-1.748,16.503-2.812,25.092-3.096c11.776-0.39,23.275,0.662,34.265,3.072
					c-3.547,7.376-5.352,15.664-5.063,24.391C2767.124,1817.423,2778.361,1834.248,2794.504,1842.912z"/>
			</g>
		</g>
		<g>
			<path style="fill:#FFAB3B;" d="M1630.228,391.654c-127.324,11.129-127.264,240.133,3.912,305.003
				C1634.14,696.657,1833.51,373.829,1630.228,391.654z M1616.986,532.763c-24.321-7.163-38.194-32.667-31.04-56.958
				c7.154-24.291,32.637-38.203,56.958-31.04c24.291,7.154,38.194,32.667,31.04,56.958
				C1666.789,526.013,1641.276,539.917,1616.986,532.763z"/>
		</g>
		<g>
			<g>
				<path style="fill:#FE653B;" d="M281.171,1421.8c53.897-7.227,91.731-56.778,84.504-110.676
					c-7.227-53.898-56.779-91.731-110.676-84.504c-53.898,7.227-91.731,56.778-84.504,110.676
					C177.722,1391.193,227.273,1429.027,281.171,1421.8z M278.558,1402.313c-43.15,5.786-82.791-24.48-88.577-67.631
					c-5.786-43.15,24.481-82.791,67.631-88.577c43.15-5.786,82.791,24.481,88.577,67.63
					C351.975,1356.886,321.708,1396.527,278.558,1402.313z"/>
			</g>
			<g>
				<circle style="fill:#FFB03A;" cx="268.085" cy="1324.21" r="78.803"/>
			</g>
			<g>
				<path style="fill:#FE653B;" d="M331.172,1395.258c0,0,120.972,128.554,124.858,129.19c9.161,1.499,23.948-16.068,20.11-24.513
					c-2.259-4.972-129.012-121.393-129.012-121.393L331.172,1395.258z"/>
			</g>
			<g>
				
					<ellipse transform="matrix(0.6069 -0.7948 0.7948 0.6069 -940.3948 697.1609)" style="fill:#333333;" cx="234.522" cy="1299.171" rx="51.592" ry="22.751"/>
			</g>
		</g>
		<g>
			<g>
				
					<ellipse transform="matrix(0.9194 -0.3932 0.3932 0.9194 -203.0024 375.6545)" style="fill:#FFB03A;" cx="815.342" cy="683.286" rx="120.812" ry="112.69"/>
			</g>
			<g>
				<path style="fill:#FFB03A;" d="M913.104,744.156c-4.101,30.567,33.603,71.582,34.116,86.187
					c0.727,20.701-33.407,41.603-50.075,27.194c-16.668-14.408-33.931-49.293-60.758-63.174
					C809.56,780.482,913.104,744.156,913.104,744.156z"/>
			</g>
			<g>
				<g>
					<path style="fill:#FD7816;" d="M882.91,803.305l13.086-5.596l-58.337-136.404c-0.437-1.023-1.619-1.496-2.642-1.059
						c-1.023,0.437-1.496,1.619-1.059,2.642l56.754,132.703l-6.769,2.895L785.741,691.71c-0.751-0.816-2.023-0.868-2.845-0.119
						c-0.817,0.753-0.871,2.027-0.119,2.845L882.91,803.305z"/>
				</g>
			</g>
			<g>
				<g>
					<path style="fill:#FE653B;" d="M941.527,838.955c1.903-0.814,2.895-2.961,2.236-4.962c-0.697-2.111-2.974-3.255-5.085-2.56
						c-18.081,5.971-35.942,9.876-42.581,9.497c3.309-2.574,10.676-6.333,15.899-8.999c14.851-7.581,26.58-13.567,22.928-21.485
						c-3.439-7.457-16.603-3.712-34.826,1.471c-7.971,2.268-21.055,5.989-24.785,5.254c0.009-0.115,0.038-0.251,0.097-0.424
						c2.513-7.493,32.574-21.356,45.408-27.277c2.02-0.93,2.901-3.323,1.97-5.34c-0.93-2.02-3.317-2.959-5.339-1.97
						c-34.001,15.681-46.999,24.061-49.669,32.026c-0.842,2.508-0.649,5.029,0.557,7.285c3.483,6.509,14.041,3.855,33.966-1.813
						c7.417-2.11,19.147-5.447,24.101-5.438c-3.246,2.976-12.305,7.601-18.065,10.541c-14.252,7.273-24.547,12.527-21.236,19.705
						c3.315,7.185,21.517,5.372,54.102-5.389C941.314,839.042,941.422,839,941.527,838.955z"/>
				</g>
			</g>
			<g>
				<g>
					<path style="fill:#FE653B;" d="M784.675,723.582c4.664-1.995,5.599-5.881,6.127-10.499c0.433-3.774,0.841-7.34,4.883-10.168
						c4.161-2.906,9.065-2.947,14.265-2.993c8.064-0.065,17.211-0.153,22.816-12.312c4.77-10.342,9.569-15.823,15.126-17.248
						c5.134-1.315,11.314,0.772,18.894,6.381c0.896,0.66,2.159,0.466,2.815-0.419c0.661-0.894,0.472-2.154-0.419-2.815
						c-8.616-6.376-15.907-8.681-22.288-7.046c-6.81,1.739-12.464,7.93-17.781,19.461c-4.54,9.846-11.329,9.904-19.197,9.973
						c-5.586,0.053-11.36,0.111-16.538,3.721c-5.527,3.864-6.107,8.934-6.573,13.007c-0.612,5.357-0.981,8.591-12.292,8.361
						c-1.11-0.027-2.031,0.86-2.053,1.97c-0.023,1.111,0.86,2.03,1.97,2.053C779.06,725.107,782.337,724.582,784.675,723.582z"/>
				</g>
			</g>
			<g>
				
					<ellipse transform="matrix(0.9999 -0.0101 0.0101 0.9999 -6.1827 8.2887)" style="fill:#333333;" cx="815.582" cy="614.804" rx="65.202" ry="25.356"/>
			</g>
		</g>
		<g>
			<g>
				<path style="fill:#FF643B;" d="M2322.032,700.555c-34.452,18.182-58.092,3.302-58.092,3.302L2125.995,856.51
					c0,0,19.944,49.074-12.641,72.816c-22.66,16.527-45.08,16.602-56.621,15.122c-2.826-0.356-3.618-4.025-1.23-5.549
					c10.283-6.632,29.192-21.428,34.464-43.494c5.73-23.981-23.88-47.458-49.517-37.04c-16.556,6.731-25.73,27.297-29.609,38.477
					c-0.927,2.69-4.636,2.762-5.677,0.134c-5.049-12.745-11.444-39.623,12.236-60.273c32.155-28.033,67.793-11.956,67.793-11.956
					l48.447-51.94l94.434-101.308c0,0-17.989-16.689-4.629-48.681c6.324-15.176,18.04-24.98,29.91-31.268
					c8.795-4.715,17.661-7.496,24.479-9.133c3.05-0.727,4.94,3.098,2.626,5.208c-23.587,21.595-24.565,52.285,8.697,70.138
					c26.97,14.468,46.413-10.886,55.051-25.936c1.53-2.688,5.611-1.641,5.652,1.457
					C2350.067,651.726,2347.063,687.328,2322.032,700.555z"/>
			</g>
			<g>
				<g>
					<path style="fill:#F04936;" d="M2102.069,844.572c-0.566-0.135-1.105-0.417-1.56-0.844c-1.39-1.307-1.456-3.492-0.15-4.88
						l146.24-155.414c1.307-1.387,3.49-1.454,4.881-0.148c1.39,1.306,1.456,3.492,0.15,4.879L2105.39,843.58
						C2104.51,844.514,2103.233,844.851,2102.069,844.572z"/>
				</g>
			</g>
			<g>
				<path style="fill:#F04936;" d="M2270.788,670.396c0.47,4.83-3.064,9.127-7.894,9.597c-4.83,0.47-9.126-3.064-9.597-7.894
					s3.064-9.126,7.894-9.597C2266.021,662.032,2270.318,665.566,2270.788,670.396z"/>
			</g>
			<g>
				<path style="fill:#F04936;" d="M2098.412,851.159c0.47,4.83-3.064,9.127-7.894,9.597c-4.83,0.47-9.127-3.064-9.597-7.894
					c-0.47-4.83,3.064-9.127,7.894-9.597C2093.645,842.795,2097.941,846.33,2098.412,851.159z"/>
			</g>
		</g>
	</g>
</g>
</svg>
